<svg width="17" height="15" viewBox="0 0 17 15" fill="none" xmlns="http://www.w3.org/2000/svg">
<path d="M16.1285 10.4297H11.6954C11.2994 8.88609 9.71505 7.95378 8.17643 8.35116C6.63782 8.74853 5.70855 10.338 6.10463 11.8817C6.50071 13.4253 8.08503 14.3576 9.62365 13.9602C10.6443 13.7004 11.4365 12.9057 11.6954 11.8817H16.1285C16.5246 11.8817 16.8445 11.5607 16.8445 11.1633C16.8445 10.766 16.5246 10.445 16.1285 10.445V10.4297ZM8.90766 12.6C8.1155 12.6 7.46044 11.9581 7.46044 11.1481C7.46044 10.338 8.10026 9.69612 8.90766 9.69612C9.71505 9.69612 10.3549 10.338 10.3549 11.1481C10.3549 11.9581 9.71505 12.6 8.90766 12.6ZM0.955597 11.1481C0.955597 10.7507 1.27551 10.4297 1.67159 10.4297H3.83479C4.23087 10.4297 4.55078 10.7507 4.55078 11.1481C4.55078 11.5454 4.23087 11.8664 3.83479 11.8664H1.67159C1.27551 11.8664 0.955597 11.5454 0.955597 11.1481ZM0.955597 3.17002C0.955597 2.77264 1.27551 2.45169 1.67159 2.45169H6.72922C7.1253 2.45169 7.44521 2.77264 7.44521 3.17002C7.44521 3.56739 7.1253 3.88834 6.72922 3.88834H1.67159C1.27551 3.88834 0.955597 3.56739 0.955597 3.17002ZM16.1285 2.45169H14.5746C14.1786 0.908041 12.5942 -0.0242585 11.0556 0.373115C9.51701 0.770489 8.58775 2.35998 8.98383 3.90363C9.37991 5.44727 10.9642 6.37957 12.5028 5.9822C13.5235 5.72238 14.3157 4.92763 14.5746 3.90363H16.1285C16.5246 3.90363 16.8445 3.58267 16.8445 3.1853C16.8445 2.78792 16.5246 2.46697 16.1285 2.46697V2.45169ZM11.7869 4.62196C10.9947 4.62196 10.3396 3.98005 10.3396 3.17002C10.3396 2.35998 10.9795 1.71807 11.7869 1.71807C12.5942 1.71807 13.2341 2.35998 13.2341 3.17002C13.2341 3.98005 12.5942 4.62196 11.7869 4.62196Z" fill="#A9AFB5"/>
</svg>
